Coordinates
version=1
nRows=24
nColumns=24
inDegrees=yes

Units are S.I. units (second, meters, Newtons, ...)
Angles are in degrees.

endheader
time	pelvis_tilt	pelvis_list	pelvis_rotation	pelvis_tx	pelvis_ty	pelvis_tz	hip_flexion_r	hip_adduction_r	hip_rotation_r	knee_angle_r	ankle_angle_r	subtalar_angle_r	mtp_angle_r	hip_flexion_l	hip_adduction_l	hip_rotation_l	knee_angle_l	ankle_angle_l	subtalar_angle_l	mtp_angle_l	lumbar_extension	lumbar_bending	lumbar_rotation
      1.15450000	     -0.61307470	      1.73487447	     -3.46371806	      0.11049488	      1.01787531	      0.33537748	     18.23213919	     -4.99874829	     -5.80686128	    -60.78607692	      6.64617182	     -1.05059744	      6.95232265	     11.32320527	      2.57720552	     -6.41850985	    -14.86344556	      1.91230207	    -15.01631754	    -13.07794907	    -10.69831135	     -4.32080490	      2.98452941
      1.15866667	     -0.51192059	      1.54048352	     -3.27757197	      0.11568619	      1.01895549	      0.33476310	     18.51883726	     -4.84010975	     -6.12787712	    -60.00345206	      6.88658176	     -1.56498646	      6.61336594	     10.76080151	      2.48510286	     -6.12415502	    -14.61309467	      2.02066941	    -15.06801428	    -13.22070962	    -10.86963801	     -4.00593844	      2.68564075
      1.16283333	     -0.48047334	      1.36095269	     -3.15365446	      0.12083786	      1.01989078	      0.33432026	     18.88781534	     -4.65985126	     -6.38252032	    -59.17037656	      7.05595148	     -2.20520964	      6.23415826	     10.26897593	      2.38333925	     -5.88693062	    -14.34998360	      2.10157506	    -15.14495630	    -13.37289890	    -10.95463655	     -3.72890367	      2.51205562
      1.16700000	     -0.37497766	      1.20982588	     -3.05541769	      0.12597788	      1.02090754	      0.33388930	     19.16268811	     -4.51698290	     -6.62961151	    -58.27486641	      7.21152471	     -2.86865439	      5.57980585	      9.67807600	      2.31794117	     -5.65748986	    -14.04433224	      2.18950767	    -15.29050535	    -13.62415037	    -11.13189454	     -3.48587683	      2.28369488
      1.17116667	     -0.43557564	      1.06119378	     -2.99232111	      0.13115067	      1.02161896	      0.33357177	     19.61122818	     -4.34729042	     -6.84339726	    -57.32959598	      7.29503375	     -3.57640866	      5.43454158	      9.27632623	      2.22491113	     -5.50268676	    -13.76127453	      2.22742397	    -15.37355366	    -13.67460611	    -11.08757230	     -3.24414562	      2.24401369
      1.17533333	     -0.30231415	      0.83030708	     -2.80991437	      0.13637050	      1.02271192	      0.33297389	     19.74679463	     -4.15992703	     -7.23212637	    -56.22110115	      7.41687028	     -4.25035047	      5.07219404	      8.66181073	      2.07720109	     -5.23560054	    -13.47133965	      2.31314341	    -15.40004568	    -13.79113397	    -11.28991417	     -2.88503288	      1.97934694
      1.17950000	     -0.21760199	      0.63999546	     -2.67034920	      0.14157680	      1.02366523	      0.33245489	     19.93741568	     -3.99963952	     -7.57810857	    -55.07686553	      7.49111959	     -4.95379421	      4.66236049	      8.09015846	      1.96540582	     -4.98741978	    -13.15522456	      2.36156107	    -15.51584145	    -13.91576890	    -11.42696492	     -2.58080694	      1.78348744
      1.18366667	     -0.26086242	      0.51112563	     -2.62036387	      0.14677088	      1.02432381	      0.33215187	     20.29173650	     -3.85930679	     -7.82177444	    -53.92672262	      7.50851418	     -5.70748266	      4.47339523	      7.65335685	      1.89238860	     -4.83861503	    -12.83539439	      2.39904273	    -15.67547960	    -13.96873535	    -11.39996548	     -2.35967552	      1.68199612
      1.18783333	     -0.08252080	      0.28175426	     -2.41124931	      0.15201680	      1.02540999	      0.33148163	     20.28716632	     -3.69908048	     -8.28646649	    -52.60531737	      7.60444772	     -6.36367178	      4.04003179	      6.97864874	      1.74690768	     -4.54219195	    -12.50967926	      2.45315213	    -15.73769164	    -14.08042774	    -11.65064936	     -1.99624626	      1.39192932
      1.19200000	      0.01266953	      0.09948358	     -2.26027599	      0.15725197	      1.02628767	      0.33094380	     20.38154833	     -3.56029309	     -8.68715277	    -51.26110475	      7.64353932	     -7.04940360	      3.55627461	      6.38926606	      1.63688303	     -4.29531427	    -12.17319068	      2.48382453	    -15.87528658	    -14.19959843	    -11.79297255	     -1.69274129	      1.18398477
      1.19616667	      0.08170108	     -0.07084320	     -2.12027214	      0.16249903	      1.02707929	      0.33045230	     20.48318709	     -3.42640591	     -9.08303797	    -49.86313460	      7.67921907	     -7.71565666	      3.05194927	      5.82814874	      1.53070823	     -4.06968198	    -11.83822707	      2.51646400	    -16.00346835	    -14.31602144	    -11.90257075	     -1.40533280	      0.97588469
      1.20033333	      0.17158928	     -0.23865833	     -1.98554735	      0.16774369	      1.02786145	      0.32998397	     20.53546421	     -3.29330570	     -9.48586740	    -48.40124431	      7.70978346	     -8.35482655	      2.54979063	      5.24124541	      1.42324018	     -3.85742677	    -11.49397704	      2.54298926	    -16.13125514	    -14.42611277	    -12.03322661	     -1.12111840	      0.78111083
      1.20450000	      0.24221131	     -0.39293326	     -1.85137833	      0.17300324	      1.02856504	      0.32954628	     20.58549234	     -3.17058245	     -9.89428705	    -46.88886121	      7.73548236	     -8.96810619	      2.04777984	      4.67528935	      1.32403714	     -3.64968183	    -11.15046323	      2.56807060	    -16.26308367	    -14.53007403	    -12.13736932	     -0.85448797	      0.58581088
      1.20866667	      0.32640211	     -0.56568971	     -1.71840337	      0.17832133	      1.02928189	      0.32909159	     20.57775611	     -3.03152313	    -10.32034409	    -45.29229587	      7.74126777	     -9.43358692	      1.34320623	      4.08226760	      1.20479456	     -3.44836253	    -10.78646058	      2.57218757	    -16.42007568	    -14.67082828	    -12.24869070	     -0.55366634	      0.34294185
      1.21283333	      0.38236276	     -0.68667165	     -1.58939050	      0.18355192	      1.02984326	      0.32872948	     20.60681878	     -2.93223890	    -10.73184925	    -43.69387677	      7.77061890	    -10.03129039	      0.78966605	      3.54286653	      1.12792040	     -3.26502542	    -10.46041872	      2.61871135	    -16.51063789	    -14.77536775	    -12.33735502	     -0.33883980	      0.18809661
      1.21700000	      0.45697318	     -0.81678265	     -1.47713420	      0.18884958	      1.03041254	      0.32840360	     20.57862907	     -2.81639957	    -11.13941538	    -42.02111744	      7.79024104	    -10.47076896	      0.16957288	      2.96286416	      1.03820290	     -3.09996760	    -10.10003992	      2.62957040	    -16.63467983	    -14.89009977	    -12.43840861	     -0.10214813	      0.00283139
      1.22116667	      0.38195320	     -0.87774252	     -1.43227233	      0.19407115	      1.03062465	      0.32829522	     20.74349165	     -2.72934804	    -11.44647204	    -40.36990640	      7.73767016	    -10.95986865	     -0.13448049	      2.56077138	      1.00613141	     -2.98830938	     -9.77673113	      2.68431696	    -16.76752694	    -14.94428223	    -12.37114345	      0.01950066	     -0.07945224
      1.22533333	      0.48232959	     -0.99324049	     -1.30558492	      0.19938035	      1.03113806	      0.32800314	     20.63234930	     -2.62279615	    -11.87629824	    -38.59730459	      7.79187042	    -11.31406967	     -0.60226524	      1.96439313	      0.92119710	     -2.85233411	     -9.43891388	      2.70004604	    -16.81971627	    -15.02559176	    -12.49383319	      0.24728389	     -0.27206187
      1.22950000	      0.39936760	     -1.04010711	     -1.27204867	      0.20465810	      1.03124127	      0.32795458	     20.75470930	     -2.53929886	    -12.18429509	    -36.85039141	      7.71974221	    -11.66305928	     -0.87312924	      1.57051462	      0.89623770	     -2.78765808	     -9.12543110	      2.76122446	    -16.94069250	    -15.07225872	    -12.39506351	      0.36550242	     -0.34638759
      1.23366667	      0.42503429	     -1.10797868	     -1.12206945	      0.20992490	      1.03149054	      0.32765277	     20.69966946	     -2.48675151	    -12.63423993	    -35.04248549	      7.82968171	    -11.71457544	     -6.02710453	      1.06935909	      0.86037453	     -2.57702925	     -8.81270944	      2.81931505	    -17.02163315	    -15.98408551	    -12.44263717	      0.53351879	     -0.62256876
      1.23783333	      0.43943783	     -1.14461209	     -1.16909811	      0.21521529	      1.03165488	      0.32793341	     20.67625565	     -2.34835934	    -12.83096726	    -33.19916771	      7.77956052	    -11.98981720	     -6.07096292	      0.55151659	      0.82005946	     -2.66784430	     -8.47112812	      2.85550480	    -16.99321193	    -16.00906074	    -12.46955716	      0.59410243	     -0.60004888
      1.24200000	      0.26139396	     -1.11535939	     -1.21746434	      0.22047607	      1.03138920	      0.32819960	     20.88312668	     -2.28661058	    -13.01685072	    -31.40787445	      7.77051371	    -12.06593693	     -6.08861105	      0.26837209	      0.85372580	     -2.71663604	     -8.18279608	      2.90756348	    -17.04833492	    -16.01718831	    -12.27006676	      0.58750545	     -0.61336983
      1.24616667	      0.27312156	     -1.14689241	     -1.18063616	      0.22573949	      1.03144548	      0.32833859	     20.80691533	     -2.17710765	    -13.29610618	    -29.48044346	      7.63028459	    -12.29514020	     -6.12866627	     -0.21479639	      0.82256794	     -2.70575836	     -7.90137618	      3.04753452	    -16.99416747	    -16.03362478	    -12.28838391	      0.67184109	     -0.66584024
      1.25033333	      0.24742812	     -1.12974368	     -1.22145640	      0.23101456	      1.03135020	      0.32865846	     20.78486014	     -2.08941179	    -13.48039340	    -27.57546118	      7.55133823	    -12.24347638	     -6.16666899	     -0.66839323	      0.83730192	     -2.79191139	     -7.60538263	      3.13938069	    -16.92798042	    -16.05688707	    -12.27293066	      0.67530854	     -0.71590070
